<?xml version="1.0" standalone="no"?>
<!DOCTYPE svg PUBLIC "-//W3C//DTD SVG 20010904//EN"
 "http://www.w3.org/TR/2001/REC-SVG-20010904/DTD/svg10.dtd">
<svg version="1.0" xmlns="http://www.w3.org/2000/svg"
 width="460.000000pt" height="460.000000pt" viewBox="0 0 460.000000 460.000000"
 preserveAspectRatio="xMidYMid meet">
<metadata>
Created by potrace 1.11, written by Peter Selinger 2001-2013
</metadata>
<g transform="translate(0.000000,460.000000) scale(0.100000,-0.100000)"
fill="#000000" stroke="none">
<path d="M0 3059 l0 -1542 138 6 c75 3 276 13 447 21 171 8 381 14 467 13
l156 -1 -19 -28 c-29 -40 -36 -42 -66 -18 -30 23 -65 21 -97 -8 -23 -22 -46
-66 -46 -90 0 -13 -11 -21 -37 -28 -30 -7 -45 -21 -84 -79 -44 -65 -190 -205
-214 -205 -13 0 -40 -31 -59 -68 -12 -24 -29 -34 -88 -52 -112 -36 -188 -70
-245 -112 -28 -21 -55 -42 -58 -49 -4 -6 -37 -30 -74 -54 -36 -24 -78 -55 -93
-69 l-28 -25 0 -336 0 -335 2300 0 2300 0 0 126 c0 108 -2 125 -14 115 -8 -7
-52 -14 -99 -17 -78 -4 -85 -3 -90 16 -4 15 -13 20 -41 20 -23 0 -39 6 -45 18
-8 13 -11 14 -11 2 -1 -21 -27 36 -40 88 -6 23 -15 42 -20 42 -6 0 -10 6 -10
14 0 8 -6 21 -14 29 -8 8 -28 40 -45 70 -142 263 -193 316 -392 410 -134 64
-153 71 -239 92 -36 9 -78 22 -95 30 -16 7 -39 15 -50 17 -12 2 -21 14 -25 33
-6 29 -113 143 -164 174 -13 8 -31 29 -42 49 -22 41 -89 98 -127 107 -31 8
-57 39 -57 68 0 34 -41 78 -96 102 -31 14 -54 30 -54 39 0 22 22 66 32 66 5 0
7 4 3 9 -3 5 0 13 6 17 18 11 84 162 108 250 l23 81 49 -5 c98 -9 154 38 235
198 21 41 48 89 60 105 31 44 50 146 36 194 -15 49 -51 90 -88 100 -25 6 -29
13 -32 45 -2 21 0 46 4 55 4 9 6 21 4 26 -1 6 -4 48 -6 95 -8 237 -14 313 -25
326 -6 7 -9 20 -6 29 4 8 2 17 -4 20 -5 4 -7 10 -5 14 3 4 0 27 -6 52 -6 24
-10 52 -10 62 0 9 -4 17 -9 17 -6 0 -8 4 -5 9 4 5 0 12 -6 14 -8 3 -6 6 5 6
11 1 17 9 17 27 0 16 -5 24 -12 21 -7 -2 -21 9 -30 25 -23 36 -23 37 5 48 l22
9 -22 0 c-20 1 -23 6 -23 42 0 38 -2 41 -22 35 -13 -3 -26 -6 -30 -6 -15 0 -8
-20 7 -20 9 0 15 -9 14 -22 -1 -17 -2 -19 -6 -5 -5 19 -33 24 -33 5 0 -20 -20
14 -20 35 0 12 8 17 30 17 30 0 30 1 30 55 l0 55 40 0 c36 0 40 3 40 25 0 14
5 25 11 25 6 0 20 11 31 25 16 21 28 25 69 25 37 0 49 4 49 15 0 11 -12 15
-50 15 -40 0 -48 3 -44 15 5 11 21 15 59 15 45 0 57 4 73 25 12 15 30 25 45
25 14 0 27 7 31 15 3 8 15 15 26 15 17 0 20 -7 21 -42 2 -30 3 -35 6 -15 7 42
31 33 41 -15 l9 -43 11 28 c14 34 25 34 50 2 22 -28 42 -33 42 -10 0 11 11 15
40 15 22 0 40 5 40 10 0 6 18 10 40 10 22 0 40 -4 40 -10 0 -5 -18 -10 -40
-10 -29 0 -40 -4 -40 -15 0 -9 -9 -15 -25 -15 -14 0 -25 -4 -25 -9 0 -5 11
-18 25 -29 21 -17 25 -28 25 -71 0 -39 -4 -51 -15 -51 -11 0 -15 -11 -15 -40
0 -29 4 -40 15 -40 11 0 15 11 15 40 0 29 4 40 15 40 11 0 15 -11 15 -36 0
-35 18 -64 39 -64 6 0 11 5 11 10 0 15 27 12 33 -3 3 -8 34 -19 69 -26 87 -18
123 -32 106 -42 -9 -6 -9 -9 -1 -9 6 0 15 5 18 11 5 7 12 6 23 -4 10 -8 33
-18 52 -22 19 -4 37 -11 40 -15 3 -3 30 -19 60 -34 30 -16 62 -32 70 -37 8 -5
33 -18 55 -29 22 -11 36 -20 30 -20 -16 -1 58 -39 78 -40 9 0 25 -8 35 -18 9
-9 34 -27 55 -39 l37 -22 0 659 0 660 -2300 0 -2300 0 0 -1541z m3090 701 c0
-22 -4 -40 -10 -40 -5 0 -10 18 -10 40 0 22 5 40 10 40 6 0 10 -18 10 -40z
m-56 -91 c-8 -14 -24 -10 -24 6 0 8 -7 15 -15 15 -9 0 -12 6 -8 16 5 13 9 12
29 -7 13 -12 21 -26 18 -30z m6 -29 c0 -5 -2 -10 -4 -10 -3 0 -8 5 -11 10 -3
6 -1 10 4 10 6 0 11 -4 11 -10z m153 -187 c-7 -2 -19 -2 -25 0 -7 3 -2 5 12 5
14 0 19 -2 13 -5z m-432 -117 c13 -15 11 -26 -6 -26 -18 0 -30 43 -19 67 6 15
8 14 12 -7 2 -14 8 -29 13 -34z m29 19 c0 -8 -4 -15 -10 -15 -5 0 -10 7 -10
15 0 8 5 15 10 15 6 0 10 -7 10 -15z m-1193 -167 c-3 -8 -6 -5 -6 6 -1 11 2
17 5 13 3 -3 4 -12 1 -19z m13 -28 c-8 -5 -19 -10 -25 -10 -5 0 -3 5 5 10 8 5
20 10 25 10 6 0 3 -5 -5 -10z m20 -220 c0 -5 -4 -10 -10 -10 -5 0 -10 5 -10
10 0 6 5 10 10 10 6 0 10 -4 10 -10z m-40 -39 c0 -19 -17 -38 -25 -29 -7 7 7
48 16 48 5 0 9 -9 9 -19z m518 -198 c-10 -2 -28 -2 -40 0 -13 2 -5 4 17 4 22
1 32 -1 23 -4z m22 -23 c10 -6 11 -10 3 -10 -7 0 -13 -11 -13 -24 0 -37 -10
-56 -31 -56 -16 0 -19 7 -19 44 0 52 23 70 60 46z m-760 -95 c0 -10 -10 -15
-30 -15 -47 0 -35 27 13 29 9 1 17 -6 17 -14z m116 -15 c0 -11 -4 -20 -8 -20
-4 0 -8 2 -8 4 0 2 -3 11 -6 20 -4 10 -1 16 8 16 7 0 14 -9 14 -20z m622 -27
c5 -10 7 -24 4 -32 -2 -8 2 -19 10 -25 16 -12 41 -76 33 -85 -3 -3 -16 1 -27
8 -19 12 -24 11 -40 -8 l-17 -22 -7 25 c-5 22 -8 23 -25 13 -16 -10 -21 -9
-29 3 -8 12 -10 12 -10 1 0 -8 -3 -12 -6 -9 -7 8 15 51 31 60 6 4 11 17 10 30
-2 23 29 57 52 58 7 0 16 -8 21 -17z m-141 -15 c-3 -8 -6 -5 -6 6 -1 11 2 17
5 13 3 -3 4 -12 1 -19z m-464 -24 c-3 -9 0 -13 8 -11 8 2 11 2 6 0 -4 -3 -5
-9 -1 -14 3 -5 2 -9 -2 -9 -12 0 -33 34 -34 54 0 15 3 16 14 6 8 -6 12 -18 9
-26z m1011 15 c5 -4 28 -7 50 -5 35 3 36 3 11 -4 -16 -4 -25 -8 -20 -9 29 -6
-44 -20 -126 -25 -52 -3 -80 -2 -64 2 28 7 29 8 10 20 -17 10 -17 11 -3 12 9
0 20 5 23 10 4 7 -3 8 -21 4 -17 -4 -25 -3 -21 3 7 12 148 5 161 -8z m-636 -7
c6 -18 -15 -14 -22 4 -4 10 -1 14 6 12 6 -2 14 -10 16 -16z m-12 -22 c6 0 10
-9 11 -19 2 -24 -31 -31 -152 -31 l-92 0 0 30 c0 34 3 35 118 30 45 -1 69 2
74 11 6 9 11 8 20 -4 7 -10 16 -17 21 -17z m737 3 c-7 -2 -19 -2 -25 0 -7 3
-2 5 12 5 14 0 19 -2 13 -5z m-22 -32 c-8 -5 -20 -7 -28 -4 -7 3 -13 0 -13 -7
0 -8 -9 -10 -27 -6 -16 5 -29 3 -33 -4 -5 -8 -16 -9 -31 -4 -20 7 -15 10 36
20 77 15 115 17 96 5z m-991 -47 c0 -2 -9 -4 -20 -4 -11 0 -20 4 -20 9 0 5 9
7 20 4 11 -3 20 -7 20 -9z m188 -4 c-15 -4 -51 -4 -80 0 -51 7 -50 8 27 8 56
0 72 -2 53 -8z m-201 -16 c-3 -3 -12 -4 -19 -1 -8 3 -5 6 6 6 11 1 17 -2 13
-5z m406 -18 c4 -10 1 -13 -8 -10 -8 3 -20 -4 -27 -15 -7 -12 -21 -21 -32 -21
-15 0 -16 3 -6 15 7 8 20 15 29 15 14 0 14 2 1 11 -13 9 -12 10 3 5 9 -3 17
-1 17 4 0 15 17 12 23 -4z m-406 -742 c-3 -3 -12 -4 -19 -1 -8 3 -5 6 6 6 11
1 17 -2 13 -5z m30 -99 c-35 -52 -41 -29 -9 36 24 49 27 52 30 27 2 -17 -6
-41 -21 -63z m-14 68 c4 -3 -5 -12 -19 -20 -31 -16 -34 -16 -34 -3 0 6 7 10
15 10 8 0 15 5 15 10 0 11 13 13 23 3z m-66 -20 c-4 -30 -17 -43 -42 -43 -22
0 -40 22 -28 34 4 3 19 6 35 6 15 0 28 5 28 10 0 6 2 10 5 10 3 0 4 -8 2 -17z
m24 -105 c-12 -12 -23 -29 -26 -38 -4 -14 -22 -18 -54 -11 -6 2 83 71 92 71 4
0 -1 -10 -12 -22z m1202 -421 c7 4 6 0 -2 -10 -7 -9 -9 -17 -3 -17 5 0 13 -20
16 -45 4 -24 11 -47 17 -50 5 -4 9 -17 9 -31 0 -25 14 -33 24 -11 5 10 7 10
12 0 3 -7 10 -13 15 -13 6 0 8 4 4 9 -3 6 3 15 14 20 26 14 52 14 29 0 -10 -5
-18 -15 -18 -21 0 -6 -7 -19 -16 -29 -12 -14 -13 -22 -4 -38 7 -14 7 -21 0
-21 -5 0 -10 4 -10 10 0 5 -17 12 -37 16 -75 13 -73 9 -71 167 1 78 3 123 5
99 3 -29 8 -40 16 -35z m-686 -423 c-3 -3 -12 -4 -19 -1 -8 3 -5 6 6 6 11 1
17 -2 13 -5z m43 -4 c0 -5 -2 -10 -4 -10 -3 0 -8 5 -11 10 -3 6 -1 10 4 10 6
0 11 -4 11 -10z m-45 -30 c-3 -5 -11 -10 -16 -10 -6 0 -7 5 -4 10 3 6 11 10
16 10 6 0 7 -4 4 -10z m36 -17 c-12 -20 -14 -14 -5 12 4 9 9 14 11 11 3 -2 0
-13 -6 -23z m26 -15 c-3 -8 -6 -5 -6 6 -1 11 2 17 5 13 3 -3 4 -12 1 -19z
m-89 -28 c-14 -22 -38 -34 -38 -20 0 6 4 10 9 10 5 0 11 9 14 21 3 12 10 18
16 15 7 -5 7 -13 -1 -26z m-13 -50 c3 -5 1 -10 -4 -10 -6 0 -11 5 -11 10 0 6
2 10 4 10 3 0 8 -4 11 -10z m2374 -307 c1 13 9 17 34 16 l32 0 -32 -16 c-18
-9 -33 -21 -33 -27 0 -6 -5 -4 -10 4 -5 8 -9 22 -9 30 0 10 3 8 9 -5 7 -17 9
-17 9 -2z"/>
<path d="M1768 2483 c6 -2 18 -2 25 0 6 3 1 5 -13 5 -14 0 -19 -2 -12 -5z"/>
<path d="M3580 3735 c0 -8 5 -15 10 -15 6 0 10 7 10 15 0 8 -4 15 -10 15 -5 0
-10 -7 -10 -15z"/>
<path d="M3280 3525 c0 -9 5 -15 11 -13 6 2 11 8 11 13 0 5 -5 11 -11 13 -6 2
-11 -4 -11 -13z"/>
</g>
</svg>
